<mxfile host="app.diagrams.net" modified="2021-12-24T07:19:17.908Z" agent="5.0 (Windows NT 10.0; Win64; x64) AppleWebKit/537.36 (KHTML, like Gecko) Chrome/94.0.4606.61 Safari/537.36" etag="LMVbUEgqsnoVUrprpy1D" version="16.0.3" type="github">
  <diagram id="kgpKYQtTHZ0yAKxKKP6v" name="Page-1">
    <mxGraphModel dx="1422" dy="754" grid="1" gridSize="10" guides="1" tooltips="1" connect="1" arrows="1" fold="1" page="1" pageScale="1" pageWidth="850" pageHeight="1100" math="0" shadow="0">
      <root>
        <mxCell id="0" />
        <mxCell id="1" parent="0" />
        <mxCell id="-24mSBLAlSgEENDBRZwc-1" value="订单中心" style="shape=umlLifeline;perimeter=lifelinePerimeter;container=1;collapsible=0;recursiveResize=0;shadow=0;strokeWidth=1;fillColor=#B2C9AB;strokeColor=#788AA3;fontColor=#FFFFFF;rounded=0;size=30;" parent="1" vertex="1">
          <mxGeometry x="20" y="60" width="100" height="800" as="geometry" />
        </mxCell>
        <mxCell id="-24mSBLAlSgEENDBRZwc-2" value="" style="points=[];perimeter=orthogonalPerimeter;shadow=0;strokeWidth=1;fillColor=#B2C9AB;strokeColor=#788AA3;fontColor=#46495D;rounded=0;" parent="-24mSBLAlSgEENDBRZwc-1" vertex="1">
          <mxGeometry x="45" y="40" width="10" height="710" as="geometry" />
        </mxCell>
        <mxCell id="-24mSBLAlSgEENDBRZwc-3" value="商户清结算服务" style="shape=umlLifeline;perimeter=lifelinePerimeter;container=1;collapsible=0;recursiveResize=0;shadow=0;strokeWidth=1;fillColor=#B2C9AB;strokeColor=#788AA3;fontColor=#FFFFFF;rounded=0;size=30;" parent="1" vertex="1">
          <mxGeometry x="160" y="60" width="110" height="790" as="geometry" />
        </mxCell>
        <mxCell id="-24mSBLAlSgEENDBRZwc-4" value="" style="points=[];perimeter=orthogonalPerimeter;shadow=0;strokeWidth=1;fillColor=#B2C9AB;strokeColor=#788AA3;fontColor=#46495D;rounded=0;" parent="-24mSBLAlSgEENDBRZwc-3" vertex="1">
          <mxGeometry x="50" y="60" width="10" height="670" as="geometry" />
        </mxCell>
        <mxCell id="-24mSBLAlSgEENDBRZwc-5" value="" style="html=1;points=[];perimeter=orthogonalPerimeter;fontSize=11;fontColor=#000000;strokeColor=#788AA3;fillColor=#B2C9AB;" parent="-24mSBLAlSgEENDBRZwc-3" vertex="1">
          <mxGeometry x="60" y="90" width="10" height="296" as="geometry" />
        </mxCell>
        <mxCell id="-24mSBLAlSgEENDBRZwc-6" value="幂等参数校验" style="edgeStyle=orthogonalEdgeStyle;html=1;align=left;spacingLeft=2;endArrow=block;rounded=0;fontSize=11;fontColor=#000000;strokeColor=#788AA3;fillColor=#B2C9AB;curved=0;exitX=1.003;exitY=0.207;exitDx=0;exitDy=0;exitPerimeter=0;" parent="-24mSBLAlSgEENDBRZwc-3" edge="1">
          <mxGeometry x="-0.8241" relative="1" as="geometry">
            <mxPoint x="70.02999999999997" y="97.27199999999993" as="sourcePoint" />
            <Array as="points">
              <mxPoint x="135" y="100" />
              <mxPoint x="135" y="112" />
            </Array>
            <mxPoint as="offset" />
            <mxPoint x="70" y="112" as="targetPoint" />
          </mxGeometry>
        </mxCell>
        <mxCell id="-24mSBLAlSgEENDBRZwc-7" value="" style="html=1;points=[];perimeter=orthogonalPerimeter;fontSize=11;fontColor=#000000;strokeColor=#788AA3;fillColor=#B2C9AB;" parent="-24mSBLAlSgEENDBRZwc-3" vertex="1">
          <mxGeometry x="60" y="438" width="10" height="40" as="geometry" />
        </mxCell>
        <mxCell id="-24mSBLAlSgEENDBRZwc-8" value="&lt;span style=&quot;background-color: rgb(255 , 255 , 153)&quot;&gt;校验是否超退&lt;br&gt;&amp;nbsp;，超退返回失败&lt;/span&gt;" style="edgeStyle=orthogonalEdgeStyle;html=1;align=left;spacingLeft=2;endArrow=block;rounded=0;entryX=1;entryY=0;fontSize=11;fontColor=#000000;strokeColor=#788AA3;strokeWidth=1;fillColor=#B2C9AB;curved=0;jumpStyle=none;" parent="-24mSBLAlSgEENDBRZwc-3" edge="1">
          <mxGeometry x="-0.2" relative="1" as="geometry">
            <mxPoint x="69" y="338" as="sourcePoint" />
            <Array as="points">
              <mxPoint x="99" y="338" />
            </Array>
            <mxPoint as="offset" />
            <mxPoint x="74" y="358" as="targetPoint" />
          </mxGeometry>
        </mxCell>
        <mxCell id="-24mSBLAlSgEENDBRZwc-9" value="" style="html=1;points=[];perimeter=orthogonalPerimeter;fontSize=11;fontColor=#000000;strokeColor=#788AA3;fillColor=#B2C9AB;" parent="-24mSBLAlSgEENDBRZwc-3" vertex="1">
          <mxGeometry x="60" y="506" width="10" height="40" as="geometry" />
        </mxCell>
        <mxCell id="-24mSBLAlSgEENDBRZwc-10" value="校验原单是否清分完成，没有返回异常信息" style="edgeStyle=orthogonalEdgeStyle;html=1;align=left;spacingLeft=2;endArrow=block;rounded=0;entryX=1;entryY=0;" parent="-24mSBLAlSgEENDBRZwc-3" edge="1">
          <mxGeometry relative="1" as="geometry">
            <mxPoint x="71" y="204" as="sourcePoint" />
            <Array as="points">
              <mxPoint x="101" y="204" />
            </Array>
            <mxPoint x="76" y="224" as="targetPoint" />
          </mxGeometry>
        </mxCell>
        <mxCell id="-24mSBLAlSgEENDBRZwc-11" value="返回校验不通过" style="html=1;verticalAlign=bottom;endArrow=open;dashed=1;endSize=8;fontSize=11;fontColor=#000000;strokeColor=#788AA3;strokeWidth=1;fillColor=#B2C9AB;curved=0;jumpStyle=none;" parent="-24mSBLAlSgEENDBRZwc-3" edge="1">
          <mxGeometry x="0.0769" y="-10" relative="1" as="geometry">
            <mxPoint x="50" y="252" as="sourcePoint" />
            <mxPoint x="-86" y="252" as="targetPoint" />
            <mxPoint as="offset" />
          </mxGeometry>
        </mxCell>
        <mxCell id="-24mSBLAlSgEENDBRZwc-12" value="计费中心" style="shape=umlLifeline;perimeter=lifelinePerimeter;container=1;collapsible=0;recursiveResize=0;shadow=0;strokeWidth=1;fillColor=#B2C9AB;strokeColor=#788AA3;fontColor=#FFFFFF;rounded=0;size=30;" parent="1" vertex="1">
          <mxGeometry x="632" y="60" width="100" height="780" as="geometry" />
        </mxCell>
        <mxCell id="-24mSBLAlSgEENDBRZwc-13" value="" style="html=1;points=[];perimeter=orthogonalPerimeter;fontSize=11;fontColor=#000000;strokeColor=#788AA3;fillColor=#B2C9AB;" parent="-24mSBLAlSgEENDBRZwc-12" vertex="1">
          <mxGeometry x="45" y="285" width="10" height="30" as="geometry" />
        </mxCell>
        <mxCell id="-24mSBLAlSgEENDBRZwc-14" value="资产交换" style="shape=umlLifeline;perimeter=lifelinePerimeter;container=1;collapsible=0;recursiveResize=0;shadow=0;strokeWidth=1;fillColor=#B2C9AB;strokeColor=#788AA3;fontColor=#FFFFFF;rounded=0;size=30;" parent="1" vertex="1">
          <mxGeometry x="850" y="60" width="100" height="790" as="geometry" />
        </mxCell>
        <mxCell id="-24mSBLAlSgEENDBRZwc-15" value="" style="html=1;points=[];perimeter=orthogonalPerimeter;fontSize=11;fontColor=#000000;strokeColor=#788AA3;fillColor=#B2C9AB;" parent="-24mSBLAlSgEENDBRZwc-14" vertex="1">
          <mxGeometry x="45" y="519" width="10" height="26" as="geometry" />
        </mxCell>
        <mxCell id="-24mSBLAlSgEENDBRZwc-16" value="商户会员" style="shape=umlLifeline;perimeter=lifelinePerimeter;container=1;collapsible=0;recursiveResize=0;shadow=0;strokeWidth=1;fillColor=#B2C9AB;strokeColor=#788AA3;fontColor=#FFFFFF;rounded=0;size=30;" parent="1" vertex="1">
          <mxGeometry x="410" y="60" width="130" height="620" as="geometry" />
        </mxCell>
        <mxCell id="-24mSBLAlSgEENDBRZwc-17" value="" style="html=1;points=[];perimeter=orthogonalPerimeter;fontSize=11;fontColor=#000000;strokeColor=#788AA3;fillColor=#B2C9AB;" parent="-24mSBLAlSgEENDBRZwc-16" vertex="1">
          <mxGeometry x="55" y="155" width="10" height="20" as="geometry" />
        </mxCell>
        <mxCell id="V6eHYc5XbVQKVzU8smpy-5" value="&lt;font color=&quot;#ffff99&quot;&gt;明细单 新增&lt;br&gt;退还手续费、退还税费、退还货币兑换费&lt;br&gt;方向为正&lt;/font&gt;" style="text;html=1;resizable=0;autosize=1;align=center;verticalAlign=middle;points=[];fillColor=#008a00;strokeColor=#005700;rounded=0;fontColor=#ffffff;" vertex="1" parent="-24mSBLAlSgEENDBRZwc-16">
          <mxGeometry x="-100" y="365" width="230" height="50" as="geometry" />
        </mxCell>
        <mxCell id="-24mSBLAlSgEENDBRZwc-18" value="" style="endArrow=classic;html=1;fontColor=#FFFFFF;strokeColor=#788AA3;fillColor=#B2C9AB;curved=0;" parent="1" source="-24mSBLAlSgEENDBRZwc-2" target="-24mSBLAlSgEENDBRZwc-4" edge="1">
          <mxGeometry width="50" height="50" relative="1" as="geometry">
            <mxPoint x="380" y="190" as="sourcePoint" />
            <mxPoint x="430" y="140" as="targetPoint" />
            <Array as="points">
              <mxPoint x="160" y="125" />
            </Array>
          </mxGeometry>
        </mxCell>
        <mxCell id="-24mSBLAlSgEENDBRZwc-19" value="&lt;font color=&quot;#000000&quot;&gt;&lt;font style=&quot;font-size: 11px ; line-height: 0.8&quot;&gt;结算退款申请&lt;/font&gt;&lt;br&gt;&lt;/font&gt;" style="text;html=1;resizable=0;autosize=1;align=center;verticalAlign=middle;points=[];fillColor=none;strokeColor=none;rounded=0;fontColor=#FFFFFF;" parent="1" vertex="1">
          <mxGeometry x="95" y="100" width="90" height="20" as="geometry" />
        </mxCell>
        <mxCell id="-24mSBLAlSgEENDBRZwc-20" value="&lt;font color=&quot;#ff6666&quot;&gt;获取清分配置&lt;br&gt;（结算时区 结算周期 结算周期类型 结算币种）&lt;/font&gt;" style="html=1;verticalAlign=bottom;endArrow=block;fontSize=11;fontColor=#000000;strokeColor=#788AA3;fillColor=#B2C9AB;curved=0;entryX=0.083;entryY=0.058;entryDx=0;entryDy=0;entryPerimeter=0;strokeWidth=1;jumpStyle=none;" parent="1" edge="1">
          <mxGeometry x="0.1873" relative="1" as="geometry">
            <mxPoint x="228" y="217.15999999999997" as="sourcePoint" />
            <mxPoint x="463.8299999999999" y="216.15999999999997" as="targetPoint" />
            <Array as="points" />
            <mxPoint as="offset" />
          </mxGeometry>
        </mxCell>
        <mxCell id="-24mSBLAlSgEENDBRZwc-21" value="" style="html=1;verticalAlign=bottom;endArrow=open;dashed=1;endSize=8;exitX=0;exitY=0.95;fontSize=11;fontColor=#000000;strokeColor=#788AA3;fillColor=#B2C9AB;curved=0;" parent="1" edge="1">
          <mxGeometry x="0.2759" y="-1" relative="1" as="geometry">
            <mxPoint x="230" y="235" as="targetPoint" />
            <mxPoint as="offset" />
            <mxPoint x="465" y="234" as="sourcePoint" />
          </mxGeometry>
        </mxCell>
        <mxCell id="-24mSBLAlSgEENDBRZwc-26" value="&lt;font color=&quot;#ff6666&quot;&gt;获取分润方 及各分润方的费用金额明细&lt;/font&gt;" style="html=1;verticalAlign=bottom;endArrow=block;entryX=0;entryY=0;fontSize=11;fontColor=#000000;strokeColor=#788AA3;strokeWidth=1;fillColor=#B2C9AB;curved=0;jumpStyle=none;" parent="1" target="-24mSBLAlSgEENDBRZwc-13" edge="1">
          <mxGeometry x="-0.2079" relative="1" as="geometry">
            <mxPoint x="230" y="346" as="sourcePoint" />
            <mxPoint as="offset" />
          </mxGeometry>
        </mxCell>
        <mxCell id="-24mSBLAlSgEENDBRZwc-27" value="" style="html=1;verticalAlign=bottom;endArrow=open;dashed=1;endSize=8;fontSize=11;fontColor=#000000;strokeColor=#788AA3;strokeWidth=1;fillColor=#B2C9AB;curved=0;jumpStyle=none;exitX=-0.083;exitY=0.779;exitDx=0;exitDy=0;exitPerimeter=0;" parent="1" source="-24mSBLAlSgEENDBRZwc-13" edge="1">
          <mxGeometry relative="1" as="geometry">
            <mxPoint x="230" y="369" as="targetPoint" />
          </mxGeometry>
        </mxCell>
        <mxCell id="-24mSBLAlSgEENDBRZwc-28" value="&lt;font color=&quot;#ff6666&quot;&gt;调用退款清分接口 转账 （同步）&lt;/font&gt;" style="html=1;verticalAlign=bottom;endArrow=open;dashed=1;endSize=8;fontSize=11;fontColor=#000000;strokeColor=#788AA3;strokeWidth=1;fillColor=#B2C9AB;curved=0;jumpStyle=none;entryX=0.9;entryY=0.675;entryDx=0;entryDy=0;entryPerimeter=0;" parent="1" edge="1">
          <mxGeometry x="0.0287" y="-22" relative="1" as="geometry">
            <mxPoint x="229" y="592" as="targetPoint" />
            <mxPoint x="890" y="592" as="sourcePoint" />
            <mxPoint as="offset" />
          </mxGeometry>
        </mxCell>
        <mxCell id="-24mSBLAlSgEENDBRZwc-29" value="" style="endArrow=open;endFill=1;endSize=12;html=1;fontSize=11;fontColor=#000000;strokeColor=#788AA3;strokeWidth=1;fillColor=#B2C9AB;curved=0;jumpStyle=none;exitX=1.167;exitY=0.342;exitDx=0;exitDy=0;exitPerimeter=0;entryX=0.083;entryY=0.115;entryDx=0;entryDy=0;entryPerimeter=0;" parent="1" target="-24mSBLAlSgEENDBRZwc-15" edge="1">
          <mxGeometry width="160" relative="1" as="geometry">
            <mxPoint x="231.67000000000007" y="578.6800000000001" as="sourcePoint" />
            <mxPoint x="890" y="545" as="targetPoint" />
            <Array as="points" />
          </mxGeometry>
        </mxCell>
        <mxCell id="-24mSBLAlSgEENDBRZwc-30" value="清分退款（支持部分详情分）" style="rounded=1;whiteSpace=wrap;html=1;fillColor=#fad7ac;strokeColor=#b46504;" parent="1" vertex="1">
          <mxGeometry x="20" y="10" width="90" height="30" as="geometry" />
        </mxCell>
        <mxCell id="-24mSBLAlSgEENDBRZwc-31" value="返回成功失败，及商户侧的金额信息" style="html=1;verticalAlign=bottom;endArrow=open;dashed=1;endSize=8;fontSize=11;fontColor=#000000;strokeColor=#788AA3;strokeWidth=1;fillColor=#B2C9AB;curved=0;jumpStyle=none;" parent="1" edge="1">
          <mxGeometry x="0.0769" y="-10" relative="1" as="geometry">
            <mxPoint x="210" y="730" as="sourcePoint" />
            <mxPoint x="74" y="730" as="targetPoint" />
            <mxPoint as="offset" />
          </mxGeometry>
        </mxCell>
        <mxCell id="-24mSBLAlSgEENDBRZwc-32" value="" style="html=1;points=[];perimeter=orthogonalPerimeter;fontSize=11;fontColor=#000000;strokeColor=#788AA3;fillColor=#B2C9AB;" parent="1" vertex="1">
          <mxGeometry x="221" y="659" width="10" height="40" as="geometry" />
        </mxCell>
        <mxCell id="-24mSBLAlSgEENDBRZwc-33" value="转账失败：&lt;br&gt;更新申请单为失败状态&lt;br&gt;更新清分单为失败状态&lt;br&gt;转账成功：&lt;br&gt;更新申请单为清分成功&lt;br&gt;更新清分单为清分成功&lt;br&gt;关联场次单" style="edgeStyle=orthogonalEdgeStyle;html=1;align=left;spacingLeft=2;endArrow=block;rounded=0;entryX=1;entryY=0;fontSize=11;fontColor=#000000;strokeColor=#788AA3;strokeWidth=1;fillColor=#B2C9AB;curved=0;jumpStyle=none;" parent="1" edge="1">
          <mxGeometry x="-0.2" relative="1" as="geometry">
            <mxPoint x="226" y="643" as="sourcePoint" />
            <Array as="points">
              <mxPoint x="256" y="643" />
            </Array>
            <mxPoint as="offset" />
            <mxPoint x="231" y="663" as="targetPoint" />
          </mxGeometry>
        </mxCell>
        <mxCell id="-24mSBLAlSgEENDBRZwc-34" value="更换币种场景暂时不考虑" style="text;html=1;resizable=0;autosize=1;align=center;verticalAlign=middle;points=[];fillColor=#008a00;strokeColor=#005700;rounded=0;fontColor=#ffffff;" parent="1" vertex="1">
          <mxGeometry x="585" y="520" width="150" height="20" as="geometry" />
        </mxCell>
        <mxCell id="V6eHYc5XbVQKVzU8smpy-1" value="落结算申请单状态申请成功，落清分明细单(初始态)" style="edgeStyle=orthogonalEdgeStyle;html=1;align=left;spacingLeft=2;endArrow=block;rounded=0;entryX=1;entryY=0;fontSize=11;fontColor=#000000;strokeColor=#788AA3;strokeWidth=1;fillColor=#B2C9AB;curved=0;jumpStyle=none;" edge="1" parent="1">
          <mxGeometry x="-0.2" relative="1" as="geometry">
            <mxPoint x="231" y="499" as="sourcePoint" />
            <Array as="points">
              <mxPoint x="261" y="499" />
            </Array>
            <mxPoint as="offset" />
            <mxPoint x="236" y="519" as="targetPoint" />
          </mxGeometry>
        </mxCell>
        <mxCell id="V6eHYc5XbVQKVzU8smpy-2" value="&lt;span style=&quot;background-color: rgb(255 , 255 , 153)&quot;&gt;返回失败&lt;/span&gt;" style="html=1;verticalAlign=bottom;endArrow=open;dashed=1;endSize=8;fontSize=11;fontColor=#000000;strokeColor=#788AA3;strokeWidth=1;fillColor=#B2C9AB;curved=0;jumpStyle=none;" edge="1" parent="1">
          <mxGeometry x="0.0769" y="-10" relative="1" as="geometry">
            <mxPoint x="213" y="433" as="sourcePoint" />
            <mxPoint x="77" y="433" as="targetPoint" />
            <mxPoint as="offset" />
          </mxGeometry>
        </mxCell>
        <mxCell id="V6eHYc5XbVQKVzU8smpy-3" value="返回幂等接口" style="html=1;verticalAlign=bottom;endArrow=open;dashed=1;endSize=8;fontSize=11;fontColor=#000000;strokeColor=#788AA3;strokeWidth=1;fillColor=#B2C9AB;curved=0;jumpStyle=none;" edge="1" parent="1">
          <mxGeometry x="0.0769" y="-10" relative="1" as="geometry">
            <mxPoint x="211" y="178" as="sourcePoint" />
            <mxPoint x="75" y="178" as="targetPoint" />
            <mxPoint as="offset" />
          </mxGeometry>
        </mxCell>
      </root>
    </mxGraphModel>
  </diagram>
</mxfile>
